<svg width="19" height="16" viewBox="0 0 19 16" fill="none" xmlns="http://www.w3.org/2000/svg">
<path d="M17.25 2C17.4792 2 17.6667 2.09375 17.8125 2.28125C17.9792 2.46875 18.0312 2.67708 17.9688 2.90625L16.5625 9.40625C16.5208 9.57292 16.4271 9.71875 16.2812 9.84375C16.1562 9.94792 16.0104 10 15.8438 10H6.0625L6.375 11.5H15.1875C15.4167 11.5 15.6042 11.5938 15.75 11.7812C15.9167 11.9688 15.9688 12.1771 15.9062 12.4062L15.875 12.5625C16.2917 12.9583 16.5 13.4375 16.5 14C16.5 14.5625 16.3021 15.0312 15.9062 15.4062C15.5312 15.8021 15.0625 16 14.5 16C13.9375 16 13.4583 15.8021 13.0625 15.4062C12.6875 15.0312 12.5 14.5625 12.5 14C12.5 13.6458 12.5938 13.3125 12.7812 13H8.21875C8.40625 13.3125 8.5 13.6458 8.5 14C8.5 14.5625 8.30208 15.0312 7.90625 15.4062C7.53125 15.8021 7.0625 16 6.5 16C5.9375 16 5.45833 15.8021 5.0625 15.4062C4.6875 15.0312 4.5 14.5625 4.5 14C4.5 13.4583 4.6875 13 5.0625 12.625L2.875 1.5H0.375C0.125 1.5 0 1.375 0 1.125V0.375C0 0.125 0.125 0 0.375 0H3.5C3.6875 0 3.84375 0.0625 3.96875 0.1875C4.11458 0.291667 4.20833 0.427083 4.25 0.59375L4.5 2H17.25ZM5.96875 14.5312C6.11458 14.6771 6.29167 14.75 6.5 14.75C6.70833 14.75 6.88542 14.6771 7.03125 14.5312C7.17708 14.3854 7.25 14.2083 7.25 14C7.25 13.7917 7.17708 13.6146 7.03125 13.4688C6.88542 13.3229 6.70833 13.25 6.5 13.25C6.29167 13.25 6.11458 13.3229 5.96875 13.4688C5.82292 13.6146 5.75 13.7917 5.75 14C5.75 14.2083 5.82292 14.3854 5.96875 14.5312ZM13.9688 14.5312C14.1146 14.6771 14.2917 14.75 14.5 14.75C14.7083 14.75 14.8854 14.6771 15.0312 14.5312C15.1771 14.3854 15.25 14.2083 15.25 14C15.25 13.7917 15.1771 13.6146 15.0312 13.4688C14.8854 13.3229 14.7083 13.25 14.5 13.25C14.2917 13.25 14.1146 13.3229 13.9688 13.4688C13.8229 13.6146 13.75 13.7917 13.75 14C13.75 14.2083 13.8229 14.3854 13.9688 14.5312ZM15.2188 8.5L16.3125 3.5H4.8125L5.78125 8.5H15.2188Z" fill="white"/>
</svg>
