<svg width="18" height="24" viewBox="0 0 18 24" fill="none" xmlns="http://www.w3.org/2000/svg">
<path d="M2.625 2.625C4.375 0.875 6.5 0 9 0C11.5 0 13.625 0.875 15.375 2.625C17.125 4.375 18 6.5 18 9C18 9.5 17.9844 9.9375 17.9531 10.3125C17.9219 10.6562 17.8125 11.0781 17.625 11.5781C17.4375 12.0781 17.2656 12.5 17.1094 12.8438C16.9531 13.1875 16.6406 13.75 16.1719 14.5312C15.7031 15.3125 15.2812 15.9844 14.9062 16.5469C14.5625 17.1094 13.9688 18.0469 13.125 19.3594C12.3125 20.6719 11.5781 21.8594 10.9219 22.9219C10.4844 23.6406 9.84375 24 9 24C8.15625 24 7.51562 23.6406 7.07812 22.9219C6.42188 21.8594 5.67188 20.6719 4.82812 19.3594C4.01562 18.0469 3.42188 17.1094 3.04688 16.5469C2.70312 15.9844 2.29688 15.3125 1.82812 14.5312C1.35938 13.75 1.04688 13.1875 0.890625 12.8438C0.734375 12.5 0.5625 12.0781 0.375 11.5781C0.1875 11.0781 0.078125 10.6562 0.046875 10.3125C0.015625 9.9375 0 9.5 0 9C0 6.5 0.875 4.375 2.625 2.625ZM9 21.75C9.625 20.75 10.2969 19.6875 11.0156 18.5625C11.7344 17.4375 12.2656 16.5938 12.6094 16.0312C12.9844 15.4375 13.375 14.8125 13.7812 14.1562C14.1875 13.5 14.4688 13.0156 14.625 12.7031C14.8125 12.3594 15 12 15.1875 11.625C15.375 11.25 15.5 10.9375 15.5625 10.6875C15.625 10.4375 15.6719 10.1875 15.7031 9.9375C15.7344 9.65625 15.75 9.34375 15.75 9C15.75 7.125 15.0938 5.53125 13.7812 4.21875C12.4688 2.90625 10.875 2.25 9 2.25C7.125 2.25 5.53125 2.90625 4.21875 4.21875C2.90625 5.53125 2.25 7.125 2.25 9C2.25 9.34375 2.26562 9.65625 2.29688 9.9375C2.32812 10.1875 2.375 10.4531 2.4375 10.7344C2.5 10.9844 2.625 11.2969 2.8125 11.6719C3 12.0469 3.1875 12.4062 3.375 12.75C3.5625 13.0625 3.85938 13.5469 4.26562 14.2031C4.67188 14.8594 5.04688 15.4844 5.39062 16.0781C5.76562 16.6406 6.29688 17.4844 6.98438 18.6094C7.70312 19.7031 8.375 20.75 9 21.75ZM6.32812 11.6719C5.60938 10.9219 5.25 10.0312 5.25 9C5.25 7.96875 5.60938 7.09375 6.32812 6.375C7.07812 5.625 7.96875 5.25 9 5.25C10.0312 5.25 10.9062 5.625 11.625 6.375C12.375 7.09375 12.75 7.96875 12.75 9C12.75 10.0312 12.375 10.9219 11.625 11.6719C10.9062 12.3906 10.0312 12.75 9 12.75C7.96875 12.75 7.07812 12.3906 6.32812 11.6719Z" fill="#85B074"/>
</svg>
