<svg width="97" height="44" viewBox="0 0 97 44" fill="none" xmlns="http://www.w3.org/2000/svg">
<g clip-path="url(#clip0_6413_13074)">
<path d="M32.6961 7.35469C31.842 6.3676 30.727 5.87348 29.351 5.87232C27.5492 5.87232 25.6802 6.62274 23.7441 8.12358C22.8205 8.8405 22.0157 9.69778 21.359 10.664C19.7966 11.3238 16.8699 12.569 13.8946 13.8452C13.7887 13.7344 13.6828 13.6236 13.57 13.511L11.0807 11.0468C9.12264 9.09682 8.14417 7.35238 8.14533 5.81344C8.14533 4.35532 8.7176 3.13214 9.86213 2.14389C11.0067 1.15565 12.4197 0.660947 14.1012 0.659792C15.6184 0.659792 16.826 1.05867 17.724 1.85642C18.618 2.65475 19.0693 3.72843 19.0693 5.07572C19.0693 5.51732 19.0276 5.26968 18.9426 5.84808V6.09572C18.9367 6.13521 18.9401 6.17554 18.9527 6.21345C18.9653 6.25135 18.9867 6.28577 19.0151 6.31392C19.0434 6.34208 19.0781 6.36317 19.1161 6.3755C19.1542 6.38784 19.1947 6.39106 19.2342 6.38492C19.4825 6.38492 19.4703 5.96584 19.5814 5.50866C19.9945 3.53275 19.1769 2.39153 18.118 1.48237C17.2293 0.725598 15.3163 0 13.9363 0C11.4262 0 9.26151 0.808144 7.44229 2.42443C5.62308 4.04072 4.71231 5.96237 4.71 8.18939C4.71 10.3044 5.8823 12.4448 8.22692 14.6107L9.45767 15.7467C6.97534 16.8065 4.99989 17.6516 4.52946 17.8248C3.53132 18.2162 1.09934 19.2535 0.323393 21.574C-1.09136 25.8219 2.55749 28.1165 2.6981 28.1996C3.80039 28.7988 5.10925 29.4395 6.73752 29.4395C9.55198 29.4395 11.9452 28.5327 13.9172 26.719C15.8892 24.9053 16.8728 22.721 16.8682 20.1661C16.8682 18.2681 16.0662 16.3811 14.4622 14.505C16.3162 13.6807 18.6805 12.6296 20.7757 11.6304C20.0316 12.9996 19.6595 14.3365 19.6595 15.6411C19.6595 17.1684 20.1097 18.4153 21.01 19.3816C21.9104 20.3479 23.0595 20.8311 24.4575 20.8311C26.5082 20.8311 28.4802 19.9998 30.3734 18.3374C32.7817 16.2258 33.9858 13.8551 33.9858 11.2251C33.9858 9.63077 33.5577 8.33832 32.7013 7.34776L32.6961 7.35469ZM11.5633 26.9164C10.3343 28.0443 8.73901 28.6072 6.77745 28.6048C2.91682 28.6048 -0.0897496 25.0704 1.2764 21.3766C2.28322 18.6595 7.39716 16.9987 9.98364 16.2333L10.5426 16.7528C12.4463 18.5077 13.3981 20.4276 13.3981 22.5126C13.3981 24.324 12.7848 25.7919 11.5581 26.9164H11.5633ZM29.2503 16.59C28.1775 18.7426 26.4121 20.2267 24.52 20.2267C23.0156 20.2267 22.2634 19.3845 22.2634 17.7001C22.2634 15.4523 22.9172 13.0475 24.2249 10.4857C25.5974 7.81071 27.2176 6.47381 29.0854 6.47497C30.6188 6.47497 31.3855 7.32871 31.3855 9.03621C31.3855 11.3273 30.6338 13.8227 29.2555 16.5849" fill="#3B3B3A"/>
<path d="M41.4486 16.6764C41.0198 17.6444 40.8081 18.3233 40.8081 18.706C40.8096 18.9431 40.8732 19.1757 40.9926 19.3807C41.1119 19.5857 41.2829 19.7561 41.4885 19.8749C42.0079 20.1982 42.6127 20.3581 43.2244 20.3338C44.7339 20.2916 46.1758 19.6997 47.2777 18.6696C47.4385 18.9261 47.6233 19.1668 47.8298 19.3883C48.7313 20.3546 49.8798 20.8378 51.2755 20.8378C53.3273 20.8378 55.4659 19.7589 57.1897 18.3441C59.672 16.3127 60.809 13.8537 60.809 11.2318C60.809 9.63746 60.3814 8.34501 59.5262 7.35445C58.671 6.3639 57.556 5.86978 56.1811 5.87208C54.3781 5.87208 52.508 6.6225 50.5707 8.12334C49.3461 9.07585 48.334 10.2725 47.5989 11.637C46.8548 13.0063 46.4827 14.3432 46.4827 15.6477C46.4669 16.5141 46.6448 17.3731 47.0035 18.1622C45.8393 19.1147 44.9505 19.5915 44.3371 19.5926C43.8094 19.5926 43.5456 19.3548 43.5456 18.8792C43.5456 18.6315 43.7018 18.1449 44.0177 17.4228L46.7552 11.2249C47.342 9.89145 47.6348 8.954 47.6336 8.41254C47.6437 8.04636 47.5734 7.68241 47.4277 7.34617C47.282 7.00994 47.0643 6.70956 46.79 6.46607C46.2264 5.95694 45.4944 5.70295 44.594 5.70411C43.0387 5.70411 41.4278 6.59711 39.7613 8.3831C39.4141 8.75196 39.1624 9.03597 38.9854 9.24897L40.2335 6.08162C40.2586 6.02743 40.2705 5.9681 40.2682 5.90845C40.2732 5.88082 40.2714 5.85239 40.2629 5.82561C40.2544 5.79884 40.2396 5.77452 40.2196 5.75475C40.1996 5.73498 40.1751 5.72036 40.1482 5.71214C40.1213 5.70392 40.0928 5.70235 40.0651 5.70757C39.9592 5.72502 39.8567 5.75891 39.7613 5.80801C39.3783 5.98811 38.5792 6.07816 37.3641 6.07816C37.1032 6.07148 36.8429 6.04951 36.5846 6.01236C36.3387 5.974 36.0905 5.95087 35.8417 5.94309C35.5934 5.94309 35.4702 6.01928 35.4702 6.1786C35.4702 6.402 35.807 6.52495 36.484 6.54573C37.0244 6.56767 37.3056 6.65772 37.3276 6.81588C37.2842 6.9042 37.2252 7.00464 37.154 7.11547L31.9845 19.4645L31.7502 19.9667C31.6373 20.1693 31.7276 20.3373 31.8838 20.3373H34.1839C34.3575 20.3373 34.5085 20.1641 34.6213 19.8299L37.3988 13.4225C38.2725 11.4009 39.2394 9.82795 40.2994 8.70348C41.6951 7.22111 42.9102 6.47992 43.9448 6.47992C44.7347 6.47992 45.127 6.86437 45.127 7.6298C45.127 8.15163 44.8012 9.14507 44.1497 10.6101L41.4486 16.6764ZM51.0464 10.4906C52.42 7.81567 54.0402 6.47877 55.9069 6.47992C57.4368 6.47992 58.2023 7.33367 58.2035 9.04117C58.2035 11.3317 57.4935 13.8479 56.0735 16.5898C54.8121 19.0142 53.2359 20.2265 51.3449 20.2265C49.8336 20.2265 49.0784 19.3837 49.0796 17.6981C49.0796 15.4526 49.7335 13.0484 51.0412 10.4854" fill="#3B3B3A"/>
<path d="M96.7283 6.71009C96.8447 6.48598 96.9355 6.24957 96.9991 6.00527C96.9991 5.84941 96.9314 5.77148 96.7977 5.77148C96.713 5.77638 96.631 5.80324 96.5599 5.84941C96.1894 5.97049 95.8003 6.02445 95.4107 6.00873C95.2511 5.99866 95.0926 5.97549 94.9368 5.93946C94.8041 5.909 94.6696 5.88645 94.5341 5.87192C94.397 5.87192 94.239 6.0451 94.0585 6.41223L93.2166 8.19592C93.014 6.57963 92.068 5.77148 90.3784 5.77148C88.7582 5.77148 86.9783 6.62292 85.0388 8.3258C83.674 9.51489 82.5202 10.9253 81.626 12.4976C80.7685 14.0238 80.3409 15.4253 80.3432 16.7022C80.34 17.1666 80.4091 17.6287 80.548 18.072C80.473 18.1391 80.4017 18.2102 80.3345 18.285C79.5869 19.1336 78.8144 19.5573 78.0171 19.5561C77.4963 19.5561 77.2342 19.3327 77.2342 18.8807C77.2342 18.4755 77.4367 17.8117 77.8418 16.8892L80.3432 11.2109C80.9056 9.92592 81.1868 8.97982 81.1868 8.37255C81.1868 7.58461 80.9334 6.95253 80.4265 6.4815C79.9196 6.01046 79.2392 5.77148 78.3816 5.77148C76.7175 5.77148 75.1633 6.82727 73.719 8.93883C73.6739 7.7601 73.4604 6.93752 73.0785 6.47111C72.6966 6.00469 72.0433 5.77379 71.1186 5.77841C69.6535 5.77841 68.4141 6.34469 67.4004 7.47725C66.7477 8.19072 66.3201 8.65771 66.1175 8.87822L66.2911 8.40719C66.4725 7.8444 66.687 7.29276 66.9334 6.75511C67.0527 6.5164 67.1542 6.26925 67.2372 6.01566C67.2372 5.85634 67.1695 5.77841 67.0341 5.77841L66.8327 5.84595C66.5619 6.0018 65.9191 6.07973 64.9041 6.07973C64.7028 6.07973 64.3834 6.05895 63.9598 6.01566C63.5363 5.97237 63.2168 5.94639 63.012 5.94639C62.8072 5.94639 62.677 6.02605 62.677 6.18191C62.677 6.40703 62.9894 6.52825 63.6213 6.52825C64.0275 6.52825 64.2306 6.62869 64.2306 6.82958C64.2157 6.91562 64.1806 6.99693 64.1282 7.06682L58.7903 19.4384C58.6324 19.731 58.497 19.9994 58.3824 20.2471C58.3785 20.2707 58.3803 20.2949 58.3876 20.3177C58.395 20.3405 58.4076 20.3612 58.4246 20.3781C58.4416 20.3951 58.4623 20.4077 58.4852 20.415C58.508 20.4224 58.5323 20.4242 58.556 20.4203C58.6259 20.4226 58.6956 20.4108 58.7608 20.3856C58.8945 20.3164 59.3128 20.2834 60.0089 20.2834C60.0766 20.2834 60.2919 20.3146 60.6512 20.3735C60.7377 20.4082 60.8306 20.4241 60.9237 20.4203C61.0568 20.4203 61.2588 20.1051 61.5296 19.4747L64.0536 13.5227C64.5951 12.2413 65.0118 11.3991 65.3034 10.9961C66.1135 9.87282 66.7106 9.08661 67.0948 8.63751C68.3794 7.17592 69.4603 6.44455 70.3375 6.4434C71.0145 6.4434 71.353 6.75857 71.353 7.382C71.353 7.91999 70.9809 9.06121 70.2368 10.8056L66.7234 19.092C66.5654 19.428 66.4404 19.6843 66.3519 19.8644C66.2828 19.9766 66.2368 20.1014 66.2165 20.2315C66.2165 20.3441 66.2963 20.4047 66.4543 20.4047H68.6832C68.8411 20.4047 69.079 20.0341 69.3932 19.2964L71.4207 14.5635C72.6428 11.7223 73.6455 9.82144 74.429 8.8609C75.6441 7.36006 76.7811 6.60964 77.84 6.60964C78.517 6.60964 78.852 7.00275 78.852 7.78723C78.852 8.19014 78.5598 9.0641 77.9754 10.4091L75.5105 16.1048C75.0117 17.2477 74.7629 18.0991 74.764 18.6591C74.7581 18.9012 74.8089 19.1413 74.9122 19.3605C75.0156 19.5796 75.1687 19.7717 75.3594 19.9215C75.8005 20.2624 76.3488 20.4355 76.9061 20.4099C77.8574 20.4099 78.8989 20.0058 80.0307 19.1976C80.2873 19.0231 80.5315 18.8309 80.7615 18.6227C80.9394 18.9799 81.1739 19.3062 81.4559 19.589C82.1988 20.3406 83.1559 20.7164 84.3271 20.7164C86.1983 20.7164 87.8434 19.6825 89.2622 17.6148C89.1163 17.9916 89.0359 18.3904 89.0244 18.7942C89.0196 19.0504 89.0771 19.3039 89.192 19.5331C89.3069 19.7623 89.4757 19.9604 89.684 20.1103C90.1803 20.4639 90.7811 20.6413 91.3904 20.6142C92.7635 20.6142 93.7634 20.3804 94.9368 19.0297C95.4177 18.4772 95.6798 18.098 95.6798 17.8504C95.6824 17.8322 95.6808 17.8138 95.675 17.7964C95.6692 17.779 95.6594 17.7632 95.6464 17.7503C95.6335 17.7374 95.6176 17.7276 95.6002 17.7218C95.5828 17.7161 95.5643 17.7144 95.5461 17.717C95.4559 17.717 95.317 17.8365 95.1399 18.0859C94.3744 19.1613 93.3832 19.8748 92.5049 19.8748C91.9199 19.8748 91.6248 19.5821 91.6248 19.0089C91.6248 18.4894 91.84 17.7586 92.2688 16.7957L96.7283 6.71009ZM89.6667 15.7342C89.1562 16.8404 88.4392 17.8395 87.5541 18.6781C86.7104 19.4609 85.9258 19.854 85.2072 19.854C83.9434 19.854 83.3127 19.0937 83.315 17.5733C83.315 16.3195 83.6755 14.8596 84.3965 13.1937C85.1387 11.4922 86.1042 9.8966 87.2677 8.44875C88.3092 7.12686 89.3901 6.46764 90.5103 6.47111C90.8074 6.46077 91.1035 6.51191 91.3798 6.62129C91.6562 6.73066 91.9068 6.89592 92.116 7.10665C92.3277 7.33028 92.4923 7.59404 92.5999 7.88228C92.7076 8.17053 92.7561 8.4774 92.7427 8.78471C92.7427 9.03061 92.5957 9.46586 92.3017 10.0904L89.6667 15.7342Z" fill="#3B3B3A"/>
<path d="M52.0077 33.5681L50.98 31.2666H50.0322V37.7814H51.0686V33.4122H51.0876L51.9382 35.3829H52.065L52.9173 33.4122H52.9364V37.7814H53.9727V31.2666H53.0232L52.0077 33.5681Z" fill="#3B3B3A"/>
<path d="M58.3527 31.2266L57.082 37.7812H58.1861L58.4117 36.4166H59.4776L59.6911 37.7812H60.7968L59.5401 31.2266H58.3527ZM58.5263 35.5559L58.9273 32.8544H58.9464L59.3474 35.5559H58.5263Z" fill="#3B3B3A"/>
<path d="M66.0561 34.524C66.3115 34.3845 66.5222 34.176 66.6641 33.9223C66.806 33.6687 66.8732 33.3802 66.858 33.0901C66.858 32.0649 66.2817 31.2666 65.0197 31.2666H63.9053V37.7814H64.9798V34.9344H65.0579C65.4051 34.9344 65.6065 35.3829 65.8599 36.4462L66.1828 37.7814H67.3267L66.9466 36.3389C66.7504 35.5284 66.4657 34.7976 66.0561 34.524ZM65.0787 34.0651H64.9798V32.1342H65.0683C65.5388 32.1342 65.7818 32.4373 65.7818 33.1196C65.7818 33.743 65.5283 34.0651 65.0874 34.0651" fill="#3B3B3A"/>
<path d="M73.6632 31.2666H72.5383L71.561 34.4755L72.7727 37.7814H73.9166L72.5574 34.3681L73.6632 31.2666Z" fill="#3B3B3A"/>
<path d="M71.5296 31.2666H70.4551V37.7831H71.5296V31.2666Z" fill="#3B3B3A"/>
<path d="M78.043 34.8652H79.4509V33.9491H78.043V32.1827H79.588V31.2666H76.9668V37.7814H79.6661V36.8653H78.043V34.8652Z" fill="#3B3B3A"/>
<path d="M82.6484 32.2312H83.723V37.7814H84.7992V32.2312H85.8651V31.2666H82.6484V32.2312Z" fill="#3B3B3A"/>
<path d="M91.2754 26.0177V25.7129H44.4271V26.0177C44.4271 27.907 43.0227 29.4638 41.2313 29.5643L40.957 29.5781V40.1417L41.2313 40.1556C43.0227 40.2543 44.4271 41.8129 44.4271 43.7022V44.007H91.2754V43.7022C91.2754 41.7419 92.7891 40.1469 94.65 40.1469H94.9381V29.5833H94.65C92.7891 29.5833 91.2754 27.9884 91.2754 26.0281V26.0177ZM94.3601 39.5512C92.4107 39.7001 90.8501 41.347 90.7147 43.4009H44.9947C44.8593 41.4215 43.4081 39.8162 41.5351 39.5755V30.1479C43.4081 29.9072 44.8593 28.3018 44.9947 26.3225H90.7077C90.8501 28.3763 92.4107 30.0232 94.3531 30.1721L94.3601 39.5512Z" fill="#3B3B3A"/>
</g>
<defs>
<clipPath id="clip0_6413_13074">
<rect width="97" height="44" fill="white"/>
</clipPath>
</defs>
</svg>
