<svg width="24" height="24" viewBox="0 0 24 24" fill="none" xmlns="http://www.w3.org/2000/svg">
<path d="M8.8125 6.1875C9.6875 5.3125 10.75 4.875 12 4.875C13.25 4.875 14.3125 5.3125 15.1875 6.1875C16.0625 7.0625 16.5 8.125 16.5 9.375C16.5 10.625 16.0625 11.6875 15.1875 12.5625C14.3125 13.4375 13.25 13.875 12 13.875C10.75 13.875 9.6875 13.4375 8.8125 12.5625C7.9375 11.6875 7.5 10.625 7.5 9.375C7.5 8.125 7.9375 7.0625 8.8125 6.1875ZM10.4062 10.9688C10.8438 11.4062 11.375 11.625 12 11.625C12.625 11.625 13.1562 11.4062 13.5938 10.9688C14.0312 10.5312 14.25 10 14.25 9.375C14.25 8.75 14.0312 8.21875 13.5938 7.78125C13.1562 7.34375 12.625 7.125 12 7.125C11.375 7.125 10.8438 7.34375 10.4062 7.78125C9.96875 8.21875 9.75 8.75 9.75 9.375C9.75 10 9.96875 10.5312 10.4062 10.9688ZM3.75 3.79688C6.03125 1.51562 8.78125 0.375 12 0.375C15.2188 0.375 17.9531 1.51562 20.2031 3.79688C22.4844 6.04688 23.625 8.78125 23.625 12C23.625 15.2188 22.4844 17.9688 20.2031 20.25C17.9531 22.5 15.2188 23.625 12 23.625C8.78125 23.625 6.03125 22.5 3.75 20.25C1.5 17.9688 0.375 15.2188 0.375 12C0.375 8.78125 1.5 6.04688 3.75 3.79688ZM5.90625 19.125C7.65625 20.625 9.6875 21.375 12 21.375C14.3125 21.375 16.3438 20.625 18.0938 19.125C17.3438 17.9375 16.25 17.3125 14.8125 17.25C13.875 17.5625 12.9375 17.7188 12 17.7188C11.0938 17.7188 10.1562 17.5625 9.1875 17.25C7.78125 17.2812 6.6875 17.9062 5.90625 19.125ZM19.6406 17.4375C20.7969 15.8125 21.375 14 21.375 12C21.375 9.40625 20.4531 7.20313 18.6094 5.39062C16.7969 3.54688 14.5938 2.625 12 2.625C9.40625 2.625 7.1875 3.54688 5.34375 5.39062C3.53125 7.20313 2.625 9.40625 2.625 12C2.625 14 3.20312 15.8125 4.35938 17.4375C5.64062 15.8125 7.28125 15 9.28125 15C9.375 15 9.70312 15.0781 10.2656 15.2344C10.8594 15.3906 11.4375 15.4688 12 15.4688C12.5625 15.4688 13.125 15.3906 13.6875 15.2344C14.2812 15.0781 14.625 15 14.7188 15C16.7188 15 18.3594 15.8125 19.6406 17.4375Z" fill="#85B074"/>
</svg>
